<?xml version="1.0" encoding="utf-8"?>
<!-- Generator: Adobe Illustrator 25.4.0, SVG Export Plug-In . SVG Version: 6.00 Build 0)  -->
<svg version="1.1" id="Ebene_1" xmlns="http://www.w3.org/2000/svg" xmlns:xlink="http://www.w3.org/1999/xlink" x="0px" y="0px"
	 viewBox="0 0 248 248" style="enable-background:new 0 0 248 248;" xml:space="preserve">
<style type="text/css">
	.st0{fill:#FFE400;}
	.st1{fill-rule:evenodd;clip-rule:evenodd;fill:#E2001A;}
</style>
<g id="Ebene_1-2">
	<polygon class="st0" points="106,29.1 66.1,64.5 39.8,88.6 28,99.1 24.7,101.4 25.7,142.7 67.3,182 96.8,208.3 106.4,216.8 
		110.7,216.6 154.5,178.9 184.6,150.6 191.7,144.3 193.8,128.5 198.7,102.6 172,81.6 117.8,33.6 112.1,29.5 109,28.3 	"/>
	<path d="M189,146.6L189,146.6l-0.7-0.7c0,0-11.1,11-24.5,23.4c-13.4,12.5-49.7,44.3-52.2,46c-1.4,1-3.3,1-4.7,0
		c-2.7-1.9-5.2-3.9-7.7-6.1l-1.9-1.5c-4.1-3.4-10.5-9.2-16.2-14.5L74,187c-6.1-5.6-19.6-18.1-26.6-24.6S26.2,142,26.1,142l-1.1,1.1
		c0,0,14.6,14.1,21.4,20.4c1.9,1.8,19,17.8,26.6,24.6l6.9,6.3c5.7,5.1,12.2,11.1,16.3,14.6l1.8,1.5c4.8,3.9,6.7,5.5,7.9,6.2
		c0.9,0.6,2,0.9,3.1,1c0.4,0.1,0.9,0.1,1.3,0l2.7,1.7c1.4,1.1,3.4,1.1,4.8,0c6-4,11.7-8.4,17-13.4c8.9-7.8,21-19,26.9-24.4
		c5.9-5.5,18.6-17.5,24.2-22.9c5.5-5.5,11.2-11,11.2-11L189,146.6z M62.8,69c3.3-3.2,14.8-14.2,26.1-24.2
		c9.1-8.3,15.8-13.4,17.4-14.6c1.2-1.2,3.1-1.5,4.6-0.6c3.1,2.1,6,4.4,8.8,6.8l4.5,3.6c4.1,3.4,8.4,7,12.2,10.7
		c2.8,2.7,7.4,6.7,11.8,10.7c4.4,4,7.3,6.8,9.6,8.8l14.3,13.1l1.2-1.2l-1.7-1.5h2l-0.6-0.7c0,0-18.6-17.4-28-25.5
		s-17.6-15.6-21.9-18.9c-1.9-1.8-4-3.4-6.3-4.5h-1.4c-2.2-1.6-3.5-2.5-3.5-2.5c-2.1-1.2-4.7-1-6.5,0.6c-1.6,1.1-8.3,6.5-17.6,14.7
		C76.4,54,64.8,64.9,61.6,68.1c-6.4,6.1-20,18.7-20.2,18.9l1.2,1.2C42.6,88.2,56.2,75.2,62.8,69z"/>
	<path d="M86.6,133.6c7.5-6.2,9.4-10.9,9-16.4c-0.1-4-2-7.8-5.1-10.2c-3.4-8.6-13.4-10.2-20.4-11.2c-8.2-0.6-16.4-0.6-24.5,0h-1.2
		v-8.9h-3.9v-5.1l-0.5-1.2c0,0-18.9,0-36.9,0.7H1.5V150h7v3.4h17.9v-23.9h16.5v-14.4h-4v-6.7H26.2v-6.9H44v57.9h6.9v3.4h17v-24.3
		l13.9,23l1.4-1.3l1.5-1.3l2.7,4.3c5.1-4.1,14-12.7,14-12.7l-5.1-5.7L86.6,133.6z M67.9,123.3v-10h2.7c0.4,0.8,0.6,1.7,0.6,2.6
		C71,118.7,69.9,121.4,67.9,123.3z M241.9,124.8l4.6-30l-4-0.3l0.6-3.9l-17.6-1.4l-2,33.8l5.8,0.3l-9.4,7.8h-1.7v-5.1h-2
		c-5.4,0.4-9.9,0.5-13.7,0.5l21.1-39.2l-6.3-0.3l3.2-5.9h-2.7c-23.2-1.3-40.4-1-46.2-1h-0.7v14.9h-49.6v-5.1h-3.9v-6.7h-15.6
		l2.3,9.3l-7.2,1.6v51.1h6.9v3.4H121v-35.1h3.6v3.2h9.8v43.2h7.2v3.4h17.7v-46.7H176v-14.4c5.1-0.3,9.3-0.4,12.7-0.5l-22.2,43.1h9.7
		l-1.7,3.4h47.7v-14.3l7,8.7l3.3-2.7l2.5,3.1l9-7.4l-8.8-11L241.9,124.8z"/>
	<path class="st1" d="M115.8,84.5v58.9H98.6V95.1l7.5-1.8l-2.4-8.8H115.8z M45.5,97.2c8.1-0.6,16.2-0.6,24.3,0
		c8.4,1,19.5,3.2,20.4,15c0.4,5.6-1.5,10.2-9.3,16.7l15.3,18c-4.4,4.3-9,8.3-13.7,12.2l-18.3-30.4c4.7-2.8,7.9-7.4,8.9-12.8
		c-0.1-3.7-2.8-6.9-6.5-7.5h-3.7V158H45.5V97.2z M136.1,157.8v-46.6l-16.8,0.4V96.3h51.1v15.3l-16.8-0.4v46.6H136.1z M172.2,96.5
		V81.2c5.8,0,22.7-0.3,46,1l-24.5,45.7c5.1,0,12.8,0.3,23-0.4v15.3h-47.8l24.2-46.6c-5.6,0.1-12.2,0-20.8,0.4L172.2,96.5z
		 M38.9,91.2v5.5H20.7v13.7h16.6v14.2H20.9v23.9H3V82.5l35.8-0.7L38.9,91.2z M225.3,121.5l11.6,0.4l4.6-29.9l-14.4-1.2L225.3,121.5z
		 M221.9,131.3l9.1-7.4l7.4,9.1l-9.1,7.4L221.9,131.3z"/>
</g>
</svg>
